<?xml version="1.0" ?><!DOCTYPE svg  PUBLIC '-//W3C//DTD SVG 1.1//EN'  'http://www.w3.org/Graphics/SVG/1.1/DTD/svg11.dtd'>
<svg version="1.1" xmlns="http://www.w3.org/2000/svg" xmlns:xlink="http://www.w3.org/1999/xlink" x="0px" y="0px" viewBox="0 0 100 100" enable-background="new 0 0 100 100" xml:space="preserve"> <path class="st3" fill="#FFF" d="M50,16.5c-18.5,0-33.5,15-33.5,33.5c0,18.5,15,33.5,33.5,33.5c18.5,0,33.5-15,33.5-33.5  C83.5,31.5,68.5,16.5,50,16.5z M52.3,65.1c-0.7,0.7-1.6,1-2.8,1c-1.2,0-2.1-0.3-2.8-1c-0.7-0.6-1-1.5-1-2.7c0-1.2,0.3-2.1,1-2.7  c0.6-0.6,1.6-0.9,2.8-0.9c1.2,0,2.1,0.3,2.8,0.9c0.7,0.6,1,1.5,1,2.7C53.3,63.5,53,64.4,52.3,65.1z M59.4,45.5  c-0.7,1.1-2.1,2.4-4.1,3.9c-1.4,1-2.3,1.8-2.6,2.3c-0.4,0.5-0.5,1.2-0.5,2.1v1.3h-5.7v-1.6c0-1.4,0.3-2.6,0.9-3.6  c0.6-1,1.7-2.1,3.2-3.2c1.5-1.1,2.5-2,3-2.7c0.5-0.7,0.7-1.4,0.7-2.3c0-0.9-0.3-1.6-1-2.1c-0.7-0.5-1.6-0.7-2.9-0.7  c-2.1,0-4.6,0.7-7.3,2.1l-2.3-4.7c3.2-1.8,6.6-2.7,10.2-2.7c2.9,0,5.3,0.7,7,2.1c1.7,1.4,2.6,3.3,2.6,5.7  C60.5,43,60.1,44.4,59.4,45.5z"></path> </svg>
